# xmcd
#
# Track frame offsets:
#	150
#	24329
#	38448
#	64175
#	80831
#	99820
#	115283
#	136973
#	157628
#	176785
#	189068
#	210429
#	228344
#	248112
#	261225
#
# Disc length: 3851 seconds
#
# Revision: 1
# Processed by: cddbd v1.5.1PL0 Copyright (c) Steve Scherf et al.
# Submitted via: audiograbber 1.82.02
#
DISCID=b40f090f
DTITLE=Farmer's Road Blues Band - Six Seasons
DYEAR=2002
DGENRE=Blues
TTITLE0=Why I sing the Blues
TTITLE1=Jealous Woman
TTITLE2=How blue can you get
TTITLE3=Tiger man
TTITLE4=Remember
TTITLE5=Days of old
TTITLE6=Troubled man
TTITLE7=For a long time
TTITLE8=I'm on your side
TTITLE9=Someday - someway
TTITLE10=Hit the ground runnin'
TTITLE11=I love you, Honey
TTITLE12=Never working country
TTITLE13=One and one is two
TTITLE14=Evil Ways
EXTD=
EXTT0=
EXTT1=
EXTT2=
EXTT3=
EXTT4=
EXTT5=
EXTT6=
EXTT7=
EXTT8=
EXTT9=
EXTT10=
EXTT11=
EXTT12=
EXTT13=
EXTT14=
PLAYORDER=
